Coordinates
version=1
nRows=10
nColumns=40
inDegrees=yes

Units are S.I. units (second, meters, Newtons, ...)
If the header above contains a line with 'inDegrees', this indicates whether rotational values are in degrees (yes) or radians (no).

endheader
time	pelvis_tilt	pelvis_list	pelvis_rotation	pelvis_tx	pelvis_ty	pelvis_tz	hip_flexion_r	hip_adduction_r	hip_rotation_r	knee_angle_r	knee_angle_r_beta	ankle_angle_r	subtalar_angle_r	mtp_angle_r	hip_flexion_l	hip_adduction_l	hip_rotation_l	knee_angle_l	knee_angle_l_beta	ankle_angle_l	subtalar_angle_l	mtp_angle_l	lumbar_extension	lumbar_bending	lumbar_rotation	arm_flex_r	arm_add_r	arm_rot_r	elbow_flex_r	pro_sup_r	wrist_flex_r	wrist_dev_r	arm_flex_l	arm_add_l	arm_rot_l	elbow_flex_l	pro_sup_l	wrist_flex_l	wrist_dev_l
      0.12000000	     -5.63296798	      6.19088604	     -5.94347409	     -0.04082979	      0.87552304	     -0.27316026	     -3.59147011	     -9.52361401	    -10.70452048	     44.53271414	      0.77724249	    -16.48364755	      0.00000000	      0.00000000	     32.94864175	      5.32267307	     -5.04903884	     25.45411048	      0.44425804	     -3.15262398	      0.00000000	      0.00000000	     -6.60450854	    -10.92733116	     12.42755038	      7.46114584	    -14.21034883	    -10.58367156	     70.77894651	     87.49466379	     31.06042014	     28.21074257	    -19.83803468	    -19.27263546	      9.17372949	     33.59858725	     88.69445750	     16.14298049	     28.39066018
      0.13000000	     -5.29880453	      6.59289451	     -5.33503981	     -0.02188383	      0.87816367	     -0.27552162	     -1.78262127	    -10.58360073	    -10.61472516	     48.02883460	      0.83826130	    -17.29005626	      0.00000000	      0.00000000	     31.71060032	      6.35897645	     -4.60308544	     26.44938975	      0.46162894	     -1.49239802	      0.00000000	      0.00000000	     -7.33151752	    -11.13756879	     10.87289828	      6.96582183	    -13.56899954	    -10.41380890	     69.81569537	     87.47380634	     31.08878735	     28.27189287	    -18.90529194	    -19.43931333	      9.32747802	     34.50616271	     88.75857663	     16.43974263	     28.47767225
      0.14000000	     -5.62065934	      7.13503694	     -4.82541258	     -0.00364795	      0.87992113	     -0.27755312	      1.07937667	    -11.67812620	    -10.24807544	     51.61415903	      0.90083702	    -16.65191779	      0.00000000	      0.00000000	     31.03952567	      7.34821753	     -4.35359844	     27.02292208	      0.47163896	     -0.14158664	      0.00000000	      0.00000000	     -7.23921920	    -11.45459663	      9.24994555	      6.54294861	    -12.87524475	     -9.82764560	     68.34023706	     87.48961417	     31.16152864	     28.56554533	    -18.21743592	    -19.52760929	      8.71957791	     35.70813292	     88.80226612	     16.87019004	     28.89657034
      0.15000000	     -5.70709632	      7.42083773	     -4.33818263	      0.01401818	      0.88257407	     -0.27948499	      3.76708079	    -12.42636076	     -9.86705449	     54.66073912	      0.95400987	    -15.60315896	      0.00000000	      0.00000000	     29.90872918	      8.11048264	     -3.94197299	     27.16800186	      0.47417108	      1.10865516	      0.00000000	      0.00000000	     -7.56655303	    -11.51252816	      7.42339476	      6.26552353	    -12.28517979	     -9.01259480	     66.81963816	     87.45946865	     31.39368856	     28.81354532	    -17.72894309	    -19.28110251	      6.38685561	     37.55605422	     88.92032929	     18.81175903	     29.78046015
      0.16000000	     -5.96698436	      7.55374833	     -3.99499855	      0.03129304	      0.88541163	     -0.28116703	      6.76194132	    -12.88652173	     -9.33963394	     57.23719176	      0.99897745	    -13.69545160	      0.00000000	      0.00000000	     28.77804010	      8.62161788	     -3.55784088	     26.90180501	      0.46952507	      2.24729838	      0.00000000	      0.00000000	     -7.63754525	    -11.31268869	      6.21318888	      5.56253725	    -11.80931553	     -8.72169162	     65.45906476	     87.48619802	     31.45350216	     29.02308503	    -16.42515301	    -19.34297984	      6.25806441	     38.63600286	     88.96202919	     18.78644644	     29.82933811
      0.17000000	     -6.29398983	      7.58000128	     -3.82386336	      0.04814634	      0.88835907	     -0.28253189	      9.95557731	    -13.10664653	     -8.67106583	     59.30537107	      1.03507399	    -11.32605897	      0.00000000	      0.00000000	     27.57573862	      8.94361337	     -3.21011663	     26.29346006	      0.45890745	      3.31309086	      0.00000000	      0.00000000	     -7.62828688	    -10.99614581	      5.09260332	      4.90025012	    -11.42173674	     -8.26474769	     63.99212780	     87.47957346	     31.62428478	     29.23167115	    -15.16618661	    -19.29348899	      5.74115558	     39.88843263	     89.01722070	     18.37403778	     29.72848602
      0.18000000	     -6.51761763	      7.44852485	     -3.75078926	      0.06490308	      0.89172941	     -0.28368757	     12.96998314	    -13.04461501	     -8.08863061	     60.64624973	      1.05847674	     -8.50948661	      0.00000000	      0.00000000	     26.08543704	      9.08832986	     -2.83567126	     25.30817129	      0.44171092	      4.21466178	      0.00000000	      0.00000000	     -7.71605269	    -10.48453863	      4.18957374	      4.11535543	    -11.15563969	     -7.93283984	     62.57448618	     87.49040555	     31.71554642	     29.37434067	    -13.67949607	    -19.26660126	      5.48377553	     41.03934039	     89.05804894	     18.04764808	     29.50339643
      0.19000000	     -7.11895244	      7.42596752	     -3.97289442	      0.08123816	      0.89429313	     -0.28419458	     16.60251250	    -12.85111740	     -7.11271541	     61.57832360	      1.07474449	     -5.74856492	      0.00000000	      0.00000000	     24.95810061	      9.16279171	     -2.73778371	     24.09621274	      0.42055825	      4.80521664	      0.00000000	      0.00000000	     -7.29177625	    -10.13954328	      3.43339580	      3.41355537	    -10.89757186	     -7.34138249	     60.92138012	     87.46752486	     31.87409947	     29.53111454	    -12.44134479	    -19.16949200	      4.72338715	     42.36196150	     89.10975715	     16.91964881	     28.96438380
      0.20000000	     -7.32046483	      6.97815884	     -4.14113514	      0.09772944	      0.89782213	     -0.28484531	     19.46460807	    -12.14975908	     -6.53001484	     61.49564947	      1.07330156	     -3.63092279	      0.00000000	      0.00000000	     23.21586891	      8.93942755	     -2.16958638	     22.60328831	      0.39450180	      5.29398794	      0.00000000	      0.00000000	     -7.38867756	     -9.30706005	      2.86953354	      2.54197109	    -10.80132615	     -7.13631713	     59.49268608	     87.25377999	     31.87587649	     29.46664289	    -10.79225836	    -19.10374404	      4.49398450	     43.48648390	     89.15843616	     16.65253158	     28.55815849
      0.21000000	     -7.92094089	      6.97053999	     -4.70477027	      0.11432718	      0.90007256	     -0.28463099	     22.84083171	    -11.61227039	     -5.49958515	     61.01999733	      1.06499986	     -0.71171567	      0.00000000	      0.00000000	     21.92320436	      8.92553876	     -2.46656350	     21.03535233	      0.36713616	      5.71452963	      0.00000000	      0.00000000	     -6.79383435	     -8.99428628	      2.31718877	      1.87929772	    -10.70299271	     -6.29508409	     57.62215922	     87.35641749	     31.88477039	     29.63332711	     -9.57612658	    -19.09936197	      4.51181264	     44.50006875	     89.18681139	     10.69191347	     26.43027794
